<svg width="342" height="296" viewBox="0 0 345 296" fill="none" xmlns="http://www.w3.org/2000/svg">
<path d="M25.6667 244C25.6667 246.946 28.0545 249.333 31 249.333C33.9455 249.333 36.3333 246.946 36.3333 244C36.3333 241.054 33.9455 238.667 31 238.667C28.0545 238.667 25.6667 241.054 25.6667 244ZM83.9763 167.226L83.9149 166.228L83.9763 167.226ZM301.667 6C301.667 8.94552 304.054 11.3333 307 11.3333C309.945 11.3333 312.333 8.94552 312.333 6C312.333 3.05448 309.945 0.666667 307 0.666667C304.054 0.666667 301.667 3.05448 301.667 6ZM31.9477 244.319C36.9662 229.417 43.3813 210.731 51.9174 195.564C60.4928 180.328 70.9956 169.027 84.0378 168.224L83.9149 166.228C69.7494 167.1 58.7783 179.296 50.1745 194.583C41.5315 209.94 35.0622 228.804 30.0523 243.681L31.9477 244.319ZM84.0378 168.224C100.795 167.192 113.61 173.365 127.076 177.773C140.534 182.178 154.398 184.684 172.707 175.803L171.834 174.003C154.171 182.571 140.893 180.191 127.699 175.872C114.513 171.556 101.168 165.166 83.9149 166.228L84.0378 168.224ZM172.707 175.803C191.192 166.836 195.335 148.522 198.513 132.259C200.119 124.045 201.467 116.403 204.175 110.44C206.85 104.553 210.795 100.429 217.589 99.1107L217.208 97.1473C209.613 98.621 205.219 103.309 202.354 109.613C199.524 115.843 198.134 123.774 196.551 131.875C193.352 148.241 189.32 165.522 171.834 174.003L172.707 175.803ZM217.589 99.1107C232.42 96.2329 239.999 85.9291 245.684 76.3547C248.558 71.5145 250.889 66.9742 253.474 63.4415C256.042 59.9309 258.678 57.6871 262.004 57.2434L261.74 55.261C257.595 55.8138 254.534 58.6049 251.86 62.2606C249.201 65.8942 246.744 70.6517 243.964 75.3336C238.341 84.8034 231.153 94.4415 217.208 97.1473L217.589 99.1107ZM262.004 57.2434C267.526 56.5068 272.63 53.3457 277.268 49.0346C281.914 44.7173 286.173 39.1715 290.005 33.5194C293.837 27.8678 297.276 22.0559 300.249 17.222C303.259 12.327 305.731 8.53912 307.68 6.73346L306.32 5.26654C304.126 7.29959 301.503 11.3636 298.545 16.1744C295.549 21.0463 292.149 26.7942 288.35 32.397C284.552 37.9993 280.391 43.4025 275.907 47.5696C271.416 51.743 266.682 54.6017 261.74 55.261L262.004 57.2434Z" fill="#0062F5"/>
<g filter="url(#filter0_d_0_1)">
<path d="M3 263C3 258.582 6.58172 255 11 255H50C54.4183 255 58 258.582 58 263V283C58 287.418 54.4183 291 50 291H11C6.58172 291 3 287.418 3 283V263Z" fill="white"/>
<path d="M11 254.5C6.30558 254.5 2.5 258.306 2.5 263V283C2.5 287.694 6.30558 291.5 11 291.5H50C54.6944 291.5 58.5 287.694 58.5 283V263C58.5 258.306 54.6944 254.5 50 254.5H11Z" stroke="black" stroke-opacity="0.08"/>
<path d="M24.3366 267.818V278H22.9247L17.7493 270.533H17.6548V278H16.1186V267.818H17.5405L22.7209 275.295H22.8153V267.818H24.3366ZM29.6749 278.154C28.959 278.154 28.3342 277.99 27.8006 277.662C27.267 277.334 26.8527 276.875 26.5577 276.285C26.2627 275.695 26.1152 275.005 26.1152 274.217C26.1152 273.424 26.2627 272.732 26.5577 272.138C26.8527 271.545 27.267 271.085 27.8006 270.756C28.3342 270.428 28.959 270.264 29.6749 270.264C30.3908 270.264 31.0156 270.428 31.5492 270.756C32.0828 271.085 32.4971 271.545 32.7921 272.138C33.0871 272.732 33.2346 273.424 33.2346 274.217C33.2346 275.005 33.0871 275.695 32.7921 276.285C32.4971 276.875 32.0828 277.334 31.5492 277.662C31.0156 277.99 30.3908 278.154 29.6749 278.154ZM29.6799 276.906C30.1439 276.906 30.5284 276.784 30.8333 276.538C31.1382 276.293 31.3636 275.967 31.5094 275.559C31.6586 275.151 31.7331 274.702 31.7331 274.212C31.7331 273.724 31.6586 273.277 31.5094 272.869C31.3636 272.458 31.1382 272.129 30.8333 271.88C30.5284 271.631 30.1439 271.507 29.6799 271.507C29.2125 271.507 28.8248 271.631 28.5165 271.88C28.2116 272.129 27.9846 272.458 27.8354 272.869C27.6896 273.277 27.6167 273.724 27.6167 274.212C27.6167 274.702 27.6896 275.151 27.8354 275.559C27.9846 275.967 28.2116 276.293 28.5165 276.538C28.8248 276.784 29.2125 276.906 29.6799 276.906ZM36.3169 278L34.0698 270.364H35.606L37.1025 275.972H37.177L38.6784 270.364H40.2147L41.7061 275.947H41.7807L43.2672 270.364H44.8034L42.5613 278H41.0449L39.4938 272.487H39.3794L37.8283 278H36.3169Z" fill="black"/>
</g>
<rect x="3" y="242" width="342" height="1" fill="black" fill-opacity="0.08"/>
<rect x="3" y="195" width="342" height="1" fill="black" fill-opacity="0.08"/>
<rect x="3" y="148" width="342" height="1" fill="black" fill-opacity="0.08"/>
<rect x="3" y="101" width="342" height="1" fill="black" fill-opacity="0.08"/>
<rect x="3" y="54" width="342" height="1" fill="black" fill-opacity="0.08"/>
<rect x="3" y="7" width="342" height="1" fill="black" fill-opacity="0.08"/>
<defs>
<filter id="filter0_d_0_1" x="0" y="254" width="61" height="42" filterUnits="userSpaceOnUse" color-interpolation-filters="sRGB">
<feFlood flood-opacity="0" result="BackgroundImageFix"/>
<feColorMatrix in="SourceAlpha" type="matrix" values="0 0 0 0 0 0 0 0 0 0 0 0 0 0 0 0 0 0 127 0" result="hardAlpha"/>
<feMorphology radius="2" operator="erode" in="SourceAlpha" result="effect1_dropShadow_0_1"/>
<feOffset dy="2"/>
<feGaussianBlur stdDeviation="2"/>
<feColorMatrix type="matrix" values="0 0 0 0 0 0 0 0 0 0 0 0 0 0 0 0 0 0 0.12 0"/>
<feBlend mode="normal" in2="BackgroundImageFix" result="effect1_dropShadow_0_1"/>
<feBlend mode="normal" in="SourceGraphic" in2="effect1_dropShadow_0_1" result="shape"/>
</filter>
</defs>
</svg>
